<svg width="24" height="24" viewBox="0 0 24 24" fill="none" xmlns="http://www.w3.org/2000/svg">
<path d="M11.9996 4.63636C16.5944 4.63636 20.3326 7.57527 20.3326 11.1875C20.3326 15.2105 16.0452 17.7011 12.0746 17.7011C10.4605 17.7011 9.25553 17.3763 8.41307 17.1742C7.57977 17.6757 7.08395 18.0226 4.85321 18.6633C5.29903 17.5399 5.45569 16.4149 5.35486 15.1737C4.65656 14.3555 3.66743 13.2101 3.66743 11.1875C3.6666 7.57527 7.40478 4.63636 11.9996 4.63636ZM11.9996 3C6.71814 3 2 6.45764 2 11.1875C2 12.8648 2.61497 14.5118 3.70576 15.7898C3.75159 17.2871 2.8533 19.4356 2.045 21C4.21324 20.6155 7.29561 19.7662 8.69305 18.9251C9.87467 19.2074 11.0055 19.3366 12.0754 19.3366C17.9785 19.3366 22 15.3791 22 11.1867C21.9992 6.43227 17.2485 3 11.9996 3ZM9.08304 11.1818C9.08304 11.8601 8.52389 12.4091 7.83309 12.4091C7.14312 12.4091 6.58314 11.8601 6.58314 11.1818C6.58314 10.5035 7.14312 9.95455 7.83309 9.95455C8.52389 9.95455 9.08304 10.5035 9.08304 11.1818ZM11.9996 9.95455C11.3096 9.95455 10.7496 10.5035 10.7496 11.1818C10.7496 11.8601 11.3096 12.4091 11.9996 12.4091C12.6904 12.4091 13.2495 11.8601 13.2495 11.1818C13.2495 10.5035 12.6904 9.95455 11.9996 9.95455ZM16.1661 9.95455C15.4761 9.95455 14.9161 10.5035 14.9161 11.1818C14.9161 11.8601 15.4761 12.4091 16.1661 12.4091C16.8569 12.4091 17.416 11.8601 17.416 11.1818C17.416 10.5035 16.8569 9.95455 16.1661 9.95455Z" fill="#2B2B2C"/>
</svg>
