<svg width="35" height="35" viewBox="0 0 35 35" fill="none" xmlns="http://www.w3.org/2000/svg">
<path fill-rule="evenodd" clip-rule="evenodd" d="M6.97229 35C6.09292 35 5.37104 34.3073 5.33313 33.4265C5.145 28.8765 4.61562 15.9994 4.61562 15.9994L2.11313 20.529C1.84188 21.0233 1.24833 21.2377 0.723333 21.035L0.721875 21.0335C0.278542 20.8615 0 20.44 0 19.9835L0.0422917 19.6773L2.46167 11.1373C2.69937 10.3002 3.46354 9.72271 4.33417 9.72271H30.6658C31.5365 9.72271 32.3006 10.3002 32.5383 11.1373L34.9577 19.6773L35 19.9835C35 20.44 34.7215 20.8615 34.2781 21.0335L34.2767 21.035C33.7517 21.2377 33.1581 21.0233 32.8869 20.529L30.3844 15.9994C30.3844 15.9994 29.855 28.8765 29.6669 33.4265C29.629 34.3073 28.9085 35 28.0292 35C27.1673 35 26.46 34.3306 26.3944 33.4731C26.2456 31.5817 25.849 27.0565 25.7294 25.2656C25.6798 24.5219 25.1358 24.0844 24.5452 24.0844C24.0158 24.0844 23.4208 24.5219 23.3727 25.2656C23.2517 27.0565 22.855 31.5817 22.7077 33.4731C22.6406 34.3306 21.9348 35 21.0744 35H21.0715C20.1935 35 19.4717 34.3073 19.4352 33.4265C19.2456 28.8765 18.496 14.5833 18.496 14.5833H16.5302C16.5302 14.5833 15.7544 28.8765 15.5648 33.4265C15.5283 34.3073 14.8065 35 13.9285 35H13.9256C13.0652 35 12.3594 34.3306 12.2923 33.4731C12.145 31.5817 11.7483 27.0565 11.6273 25.2656C11.5792 24.5219 10.9842 24.0844 10.4548 24.0844C9.86417 24.0844 9.32021 24.5219 9.27063 25.2656C9.15104 27.0565 8.75438 31.5817 8.60563 33.4731C8.54 34.3306 7.83417 35 6.97229 35ZM10.449 0C12.864 0 14.824 1.96 14.824 4.375C14.824 6.79 12.864 8.75 10.449 8.75C8.03542 8.75 6.07396 6.79 6.07396 4.375C6.07396 1.96 8.03542 0 10.449 0ZM24.551 0C22.136 0 20.176 1.96 20.176 4.375C20.176 6.79 22.136 8.75 24.551 8.75C26.9646 8.75 28.926 6.79 28.926 4.375C28.926 1.96 26.9646 0 24.551 0Z" fill="url(#paint0_linear_393_3811)"/>
<defs>
<linearGradient id="paint0_linear_393_3811" x1="0" y1="17.5" x2="35" y2="17.5" gradientUnits="userSpaceOnUse">
<stop stop-color="#D0F44F"/>
<stop offset="1" stop-color="#4DDCC3"/>
</linearGradient>
</defs>
</svg>
